<svg xmlns="http://www.w3.org/2000/svg" width="512" height="512" viewBox="0 0 32 32"><g><path fill="#EA80FC" fill-rule="evenodd" d="M11 4a9 9 0 0 0-9 9v6a9 9 0 0 0 9 9h10a9 9 0 0 0 9-9v-6a9 9 0 0 0-9-9zm4.707 8.293a.997.997 0 0 1 .293.698V19a1 1 0 1 1-2 0v-3.586l-2.293 2.293a1 1 0 0 1-1.414 0L8 15.414V19a1 1 0 1 1-2 0v-6a.997.997 0 0 1 1-1 .997.997 0 0 1 .707.293L11 15.586l3.293-3.293a.997.997 0 0 1 .704-.293h.006c.255 0 .51.098.704.293zM23 13a1 1 0 1 0-2 0v4.006l-1.427-.997a1 1 0 0 0-1.146 1.64l3 2.095a1 1 0 0 0 1.124.015l3.172-2.096a1 1 0 0 0-1.103-1.669L23 17.065z" clip-rule="evenodd"/></g></svg>